<?xml version="1.0" standalone="no"?><!-- Generator: Gravit.io --><svg xmlns="http://www.w3.org/2000/svg" xmlns:xlink="http://www.w3.org/1999/xlink" style="isolation:isolate" viewBox="4127 -2971.5 455 455" width="455" height="455"><g id="Group"><rect x="4127" y="-2971.5" width="455" height="455" transform="matrix(1,0,0,1,0,0)" fill="rgb(0,0,0)"/><path d=" M 4489.541 -2865.041 L 4488.489 -2867.711 C 4488.458 -2867.788 4488.399 -2867.851 4488.323 -2867.885 L 4485.71 -2869.072 C 4464.197 -2878.843 4433.852 -2881.254 4407.005 -2882.322 L 4376.766 -2882.322 C 4376.424 -2882.322 4376.32 -2881.861 4376.628 -2881.714 L 4438.741 -2851.935 C 4439.091 -2851.768 4438.897 -2851.247 4438.521 -2851.345 C 4410.586 -2858.64 4382.366 -2862.333 4354.5 -2862.333 C 4326.724 -2862.333 4298.595 -2858.663 4270.747 -2851.414 C 4270.368 -2851.316 4270.176 -2851.843 4270.531 -2852.007 L 4334.824 -2881.71 C 4335.135 -2881.854 4335.034 -2882.321 4334.69 -2882.321 L 4301.997 -2882.321 C 4275.15 -2881.252 4244.804 -2878.841 4223.292 -2869.07 L 4220.678 -2867.883 C 4220.603 -2867.849 4220.543 -2867.787 4220.513 -2867.709 L 4219.46 -2865.039 C 4197.444 -2809.254 4191.188 -2714.549 4197.86 -2655.22 L 4198.21 -2652.109 L 4200.685 -2650.189 C 4235.077 -2623.52 4281.065 -2609.808 4309.996 -2606.169 L 4313.737 -2605.699 C 4314.952 -2605.545 4316.114 -2606.248 4316.544 -2607.396 L 4335.373 -2657.702 C 4335.96 -2659.271 4334.961 -2660.983 4333.307 -2661.243 L 4327.529 -2662.15 C 4307.381 -2665.316 4278.836 -2673.707 4254.712 -2695.585 C 4254.197 -2696.052 4254.694 -2696.891 4255.345 -2696.65 C 4257.305 -2695.921 4259.467 -2695.077 4261.693 -2694.207 C 4267.148 -2692.076 4272.79 -2689.873 4276.471 -2688.998 C 4302.341 -2682.847 4328.574 -2679.727 4354.499 -2679.727 L 4354.499 -2680.189 L 4354.553 -2680.189 L 4354.556 -2679.727 C 4380.428 -2679.727 4406.661 -2682.846 4432.528 -2688.998 C 4436.211 -2689.873 4441.852 -2692.076 4447.308 -2694.208 C 4449.532 -2695.077 4451.693 -2695.922 4453.653 -2696.65 C 4454.304 -2696.891 4454.8 -2696.051 4454.286 -2695.585 C 4430.243 -2673.804 4401.661 -2665.434 4381.469 -2662.271 L 4375.692 -2661.367 C 4374.038 -2661.108 4373.037 -2659.397 4373.624 -2657.829 L 4392.456 -2607.398 C 4392.885 -2606.25 4394.048 -2605.546 4395.264 -2605.699 L 4399.008 -2606.17 C 4427.937 -2609.808 4473.921 -2623.52 4508.315 -2650.19 L 4510.79 -2652.109 L 4511.14 -2655.221 C 4517.812 -2714.549 4511.556 -2809.255 4489.541 -2865.041 Z  M 4293.043 -2728.078 C 4269.656 -2725.992 4250.144 -2745.502 4252.227 -2768.89 C 4253.824 -2786.817 4268.26 -2801.255 4286.188 -2802.854 C 4309.576 -2804.939 4329.087 -2785.429 4327.005 -2762.042 C 4325.406 -2744.114 4310.971 -2729.677 4293.043 -2728.078 Z  M 4422.814 -2728.078 C 4399.427 -2725.992 4379.915 -2745.502 4381.998 -2768.89 C 4383.596 -2786.817 4398.031 -2801.255 4415.96 -2802.854 C 4439.346 -2804.939 4458.859 -2785.429 4456.776 -2762.042 C 4455.178 -2744.114 4440.742 -2729.677 4422.814 -2728.078 Z " fill="rgb(255,255,255)"/></g></svg>