<?xml version="1.0" standalone="no"?><!-- Generator: Gravit.io --><svg xmlns="http://www.w3.org/2000/svg" xmlns:xlink="http://www.w3.org/1999/xlink" style="isolation:isolate" viewBox="4720.5 -2971.5 455 455" width="455" height="455"><g id="Group"><rect x="4720.5" y="-2971.5" width="455" height="455" transform="matrix(1,0,0,1,0,0)" fill="rgb(0,0,0)"/><g id="steam"><g id="Group"><path d=" M 5065.813 -2852 C 5030.041 -2852 5000.94 -2822.91 5000.94 -2787.138 C 5000.94 -2781.157 5002.015 -2775.467 5003.545 -2769.965 L 4977.551 -2728.947 C 4974.105 -2729.741 4970.553 -2730.267 4966.885 -2730.267 C 4955.401 -2730.267 4944.992 -2725.98 4936.802 -2719.122 L 4859.3 -2753.13 C 4859.358 -2754.053 4859.568 -2754.906 4859.568 -2755.829 C 4859.568 -2781.811 4838.411 -2802.945 4812.441 -2802.945 C 4786.47 -2802.945 4765.325 -2781.822 4765.325 -2755.829 C 4765.325 -2729.835 4786.47 -2708.701 4812.441 -2708.701 C 4822.114 -2708.701 4831.11 -2711.622 4838.586 -2716.657 L 4919.968 -2680.931 C 4921.159 -2655.989 4941.639 -2636 4966.885 -2636 C 4992.867 -2636 5014.001 -2657.146 5014.001 -2683.128 C 5014.001 -2685.079 5013.674 -2686.948 5013.417 -2688.84 L 5057.063 -2723.141 C 5059.937 -2722.732 5062.811 -2722.253 5065.802 -2722.253 C 5101.574 -2722.253 5130.675 -2751.354 5130.675 -2787.126 C 5130.675 -2822.922 5101.574 -2852 5065.813 -2852 Z  M 4790.349 -2755.829 C 4790.349 -2768.002 4800.267 -2777.92 4812.441 -2777.92 C 4824.626 -2777.92 4834.544 -2768.014 4834.544 -2755.829 C 4834.544 -2743.644 4824.626 -2733.737 4812.441 -2733.737 C 4800.267 -2733.737 4790.349 -2743.644 4790.349 -2755.829 Z  M 4966.885 -2660.288 C 4954.268 -2660.288 4944.01 -2670.534 4944.01 -2683.151 C 4944.01 -2695.757 4954.268 -2706.037 4966.885 -2706.037 C 4979.491 -2706.037 4989.748 -2695.768 4989.748 -2683.151 C 4989.748 -2670.534 4979.491 -2660.288 4966.885 -2660.288 Z  M 5065.813 -2750.081 C 5045.369 -2750.081 5028.756 -2766.705 5028.756 -2787.138 C 5028.756 -2807.571 5045.369 -2824.195 5065.813 -2824.195 C 5086.258 -2824.195 5102.871 -2807.571 5102.871 -2787.138 C 5102.871 -2766.705 5086.258 -2750.081 5065.813 -2750.081 Z " fill="rgb(255,255,255)"/></g></g></g></svg>