<?xml version="1.0" standalone="no"?><!-- Generator: Gravit.io --><svg xmlns="http://www.w3.org/2000/svg" xmlns:xlink="http://www.w3.org/1999/xlink" style="isolation:isolate" viewBox="2940 -2971.5 455 455" width="455" height="455"><g id="twitter"><path d=" M 2940 -2971.5 L 2940 -2516.5 L 3395 -2516.5 L 3395 -2971.5 L 2940 -2971.5 Z  M 3292.751 -2808.241 C 3292.874 -2805.468 3292.937 -2802.68 3292.937 -2799.881 C 3292.937 -2714.478 3227.935 -2616.005 3109.064 -2616.005 C 3072.568 -2616.005 3038.598 -2626.702 3009.999 -2645.042 C 3015.055 -2644.441 3020.198 -2644.135 3025.416 -2644.135 C 3055.694 -2644.135 3083.559 -2654.466 3105.678 -2671.803 C 3077.398 -2672.322 3053.53 -2691.007 3045.305 -2716.683 C 3049.253 -2715.926 3053.302 -2715.52 3057.466 -2715.52 C 3063.36 -2715.52 3069.07 -2716.314 3074.493 -2717.788 C 3044.93 -2723.727 3022.652 -2749.845 3022.652 -2781.156 C 3022.652 -2781.429 3022.652 -2781.7 3022.658 -2781.97 C 3031.37 -2777.13 3041.334 -2774.222 3051.929 -2773.886 C 3034.587 -2785.475 3023.181 -2805.257 3023.181 -2827.676 C 3023.181 -2839.521 3026.368 -2850.621 3031.932 -2860.168 C 3063.805 -2821.067 3111.425 -2795.34 3165.135 -2792.642 C 3164.032 -2797.374 3163.458 -2802.307 3163.458 -2807.371 C 3163.458 -2843.059 3192.396 -2871.994 3228.084 -2871.994 C 3246.673 -2871.994 3263.469 -2864.147 3275.257 -2851.588 C 3289.976 -2854.483 3303.808 -2859.864 3316.295 -2867.269 C 3311.471 -2852.177 3301.224 -2839.515 3287.88 -2831.515 C 3300.954 -2833.078 3313.408 -2836.553 3324.998 -2841.693 C 3316.336 -2828.734 3305.38 -2817.351 3292.751 -2808.241 Z " fill="rgb(0,0,0)"/></g></svg>