<?xml version="1.0" standalone="no"?><!-- Generator: Gravit.io --><svg xmlns="http://www.w3.org/2000/svg" xmlns:xlink="http://www.w3.org/1999/xlink" style="isolation:isolate" viewBox="3533.5 -2971.5 455 455" width="455" height="455"><g id="facebook"><path d=" M 3533.5 -2971.5 L 3533.5 -2516.5 L 3988.5 -2516.5 L 3988.5 -2971.5 L 3533.5 -2971.5 Z  M 3834.504 -2846.283 L 3798.94 -2846.283 C 3791.896 -2846.283 3784.787 -2839.003 3784.787 -2833.587 L 3784.787 -2797.323 L 3834.434 -2797.323 C 3832.435 -2769.516 3828.331 -2744.088 3828.331 -2744.088 L 3784.533 -2744.088 L 3784.533 -2586.5 L 3719.267 -2586.5 L 3719.267 -2744.105 L 3687.496 -2744.105 L 3687.496 -2797.134 L 3719.267 -2797.134 L 3719.267 -2840.49 C 3719.267 -2848.418 3717.661 -2901.499 3786.139 -2901.499 L 3834.505 -2901.499 L 3834.505 -2846.283 L 3834.504 -2846.283 Z " fill="rgb(0,0,0)"/></g></svg>