<?xml version="1.0" standalone="no"?><!-- Generator: Gravit.io --><svg xmlns="http://www.w3.org/2000/svg" xmlns:xlink="http://www.w3.org/1999/xlink" style="isolation:isolate" viewBox="5984.546 -3948 373.129 54" width="373.129" height="54"><g id="Group"><path d=" M 6244.969 -3912.398 L 6245.67 -3912.398 L 6245.529 -3933.394 L 6245.529 -3933.394 Q 6245.459 -3935.009 6244.933 -3935.711 L 6244.933 -3935.711 L 6244.933 -3935.711 Q 6244.407 -3936.414 6243.213 -3936.414 L 6243.213 -3936.414 L 6243.213 -3936.414 Q 6242.44 -3936.414 6241.739 -3936.379 L 6241.739 -3936.379 L 6241.739 -3936.379 Q 6241.036 -3936.344 6240.825 -3936.344 L 6240.825 -3936.344 L 6240.544 -3936.905 L 6241.036 -3941.259 L 6241.036 -3941.259 Q 6242.721 -3941.189 6244.407 -3941.118 L 6244.407 -3941.118 L 6244.407 -3941.118 Q 6245.811 -3941.048 6247.355 -3941.013 L 6247.355 -3941.013 L 6247.355 -3941.013 Q 6248.902 -3940.978 6250.095 -3940.978 L 6250.095 -3940.978 L 6250.095 -3940.978 Q 6251.358 -3940.978 6252.833 -3941.013 L 6252.833 -3941.013 L 6252.833 -3941.013 Q 6254.307 -3941.048 6255.502 -3941.118 L 6255.502 -3941.118 L 6255.502 -3941.118 Q 6256.906 -3941.189 6258.381 -3941.329 L 6258.381 -3941.329 L 6258.029 -3936.624 L 6258.029 -3936.624 Q 6255.713 -3936.274 6254.695 -3935.29 L 6254.695 -3935.29 L 6254.695 -3935.29 Q 6253.676 -3934.307 6253.606 -3932.2 L 6253.606 -3932.2 L 6252.692 -3894.913 L 6245.25 -3894 L 6245.25 -3894 Q 6241.106 -3900.6 6237.42 -3906.254 L 6237.42 -3906.254 L 6237.42 -3906.254 Q 6233.733 -3911.907 6230.925 -3916.12 L 6230.925 -3916.12 L 6230.925 -3916.12 Q 6227.624 -3921.035 6224.814 -3925.178 L 6224.814 -3925.178 L 6224.113 -3925.178 L 6224.043 -3903.55 L 6224.043 -3903.55 Q 6224.043 -3901.794 6224.569 -3901.092 L 6224.569 -3901.092 L 6224.569 -3901.092 Q 6225.096 -3900.39 6226.429 -3900.39 L 6226.429 -3900.39 L 6226.429 -3900.39 Q 6226.711 -3900.39 6227.237 -3900.39 L 6227.237 -3900.39 L 6227.237 -3900.39 Q 6227.765 -3900.39 6228.255 -3900.461 L 6228.255 -3900.461 L 6228.255 -3900.461 Q 6228.818 -3900.531 6229.45 -3900.6 L 6229.45 -3900.6 L 6229.87 -3900.109 L 6229.169 -3895.615 L 6229.169 -3895.615 Q 6227.484 -3895.685 6225.798 -3895.756 L 6225.798 -3895.756 L 6225.798 -3895.756 Q 6224.393 -3895.826 6222.814 -3895.861 L 6222.814 -3895.861 L 6222.814 -3895.861 Q 6221.233 -3895.896 6220.11 -3895.896 L 6220.11 -3895.896 L 6220.11 -3895.896 Q 6218.706 -3895.896 6217.161 -3895.826 L 6217.161 -3895.826 L 6217.161 -3895.826 Q 6215.615 -3895.756 6214.351 -3895.615 L 6214.351 -3895.615 L 6214.351 -3895.615 Q 6212.877 -3895.474 6211.473 -3895.334 L 6211.473 -3895.334 L 6212.035 -3900.039 L 6212.035 -3900.039 Q 6214.141 -3900.32 6215.125 -3901.338 L 6215.125 -3901.338 L 6215.125 -3901.338 Q 6216.107 -3902.356 6216.177 -3904.463 L 6216.177 -3904.463 L 6217.091 -3932.2 L 6217.091 -3932.2 Q 6217.091 -3934.448 6215.966 -3935.325 L 6215.966 -3935.325 L 6215.966 -3935.325 Q 6214.843 -3936.203 6211.403 -3936.555 L 6211.403 -3936.555 L 6210.84 -3937.257 L 6211.332 -3941.329 L 6211.332 -3941.329 Q 6212.736 -3941.189 6214.141 -3941.118 L 6214.141 -3941.118 L 6214.141 -3941.118 Q 6215.336 -3941.048 6216.74 -3941.013 L 6216.74 -3941.013 L 6216.74 -3941.013 Q 6218.144 -3940.978 6219.477 -3940.978 L 6219.477 -3940.978 L 6219.477 -3940.978 Q 6220.602 -3940.978 6221.795 -3941.013 L 6221.795 -3941.013 L 6221.795 -3941.013 Q 6222.989 -3941.048 6223.973 -3941.118 L 6223.973 -3941.118 L 6223.973 -3941.118 Q 6225.166 -3941.189 6226.218 -3941.259 L 6226.218 -3941.259 L 6226.218 -3941.259 Q 6229.659 -3935.642 6232.995 -3930.445 L 6232.995 -3930.445 L 6232.995 -3930.445 Q 6236.332 -3925.248 6238.999 -3921.246 L 6238.999 -3921.246 L 6238.999 -3921.246 Q 6242.089 -3916.541 6244.969 -3912.398 L 6244.969 -3912.398 Z  M 6270.037 -3936.203 L 6270.037 -3936.203 L 6270.037 -3936.203 Q 6267.721 -3936.203 6266.421 -3937.537 L 6266.421 -3937.537 L 6266.421 -3937.537 Q 6265.122 -3938.872 6265.122 -3941.259 L 6265.122 -3941.259 L 6265.122 -3941.259 Q 6265.122 -3943.787 6266.666 -3945.332 L 6266.666 -3945.332 L 6266.666 -3945.332 Q 6268.213 -3946.877 6270.669 -3946.877 L 6270.669 -3946.877 L 6270.669 -3946.877 Q 6272.917 -3946.877 6274.287 -3945.542 L 6274.287 -3945.542 L 6274.287 -3945.542 Q 6275.655 -3944.209 6275.655 -3941.821 L 6275.655 -3941.821 L 6275.655 -3941.821 Q 6275.655 -3939.293 6274.076 -3937.748 L 6274.076 -3937.748 L 6274.076 -3937.748 Q 6272.495 -3936.203 6270.037 -3936.203 Z  M 6261.47 -3895.124 L 6262.032 -3899.618 L 6262.032 -3899.618 Q 6264.139 -3899.969 6265.087 -3901.022 L 6265.087 -3901.022 L 6265.087 -3901.022 Q 6266.035 -3902.076 6266.035 -3903.972 L 6266.035 -3903.972 L 6266.035 -3918.999 L 6266.035 -3918.999 Q 6266.035 -3921.246 6265.368 -3922.089 L 6265.368 -3922.089 L 6265.368 -3922.089 Q 6264.702 -3922.931 6263.015 -3922.931 L 6263.015 -3922.931 L 6263.015 -3922.931 Q 6262.665 -3922.931 6261.962 -3922.791 L 6261.962 -3922.791 L 6261.962 -3922.791 Q 6261.681 -3922.72 6261.4 -3922.72 L 6261.4 -3922.72 L 6261.821 -3926.864 L 6261.821 -3926.864 Q 6264.28 -3927.215 6266.632 -3927.601 L 6266.632 -3927.601 L 6266.632 -3927.601 Q 6268.984 -3927.987 6270.95 -3928.338 L 6270.95 -3928.338 L 6270.95 -3928.338 Q 6273.198 -3928.759 6275.303 -3929.181 L 6275.303 -3929.181 L 6275.936 -3927.987 L 6275.936 -3927.987 Q 6275.584 -3927.215 6275.269 -3925.038 L 6275.269 -3925.038 L 6275.269 -3925.038 Q 6274.954 -3922.861 6274.743 -3919.596 L 6274.743 -3919.596 L 6274.743 -3919.596 Q 6274.532 -3916.331 6274.391 -3912.187 L 6274.391 -3912.187 L 6274.391 -3912.187 Q 6274.251 -3908.044 6274.251 -3903.339 L 6274.251 -3903.339 L 6274.251 -3903.339 Q 6274.251 -3901.654 6274.743 -3900.952 L 6274.743 -3900.952 L 6274.743 -3900.952 Q 6275.235 -3900.25 6276.428 -3900.25 L 6276.428 -3900.25 L 6276.428 -3900.25 Q 6276.709 -3900.25 6277.025 -3900.25 L 6277.025 -3900.25 L 6277.025 -3900.25 Q 6277.34 -3900.25 6277.691 -3900.32 L 6277.691 -3900.32 L 6277.691 -3900.32 Q 6278.043 -3900.32 6278.465 -3900.39 L 6278.465 -3900.39 L 6278.605 -3900.109 L 6277.902 -3895.685 L 6277.902 -3895.685 Q 6276.428 -3895.685 6275.094 -3895.756 L 6275.094 -3895.756 L 6275.094 -3895.756 Q 6273.899 -3895.826 6272.565 -3895.861 L 6272.565 -3895.861 L 6272.565 -3895.861 Q 6271.232 -3895.896 6270.107 -3895.896 L 6270.107 -3895.896 L 6270.107 -3895.896 Q 6268.773 -3895.896 6267.265 -3895.756 L 6267.265 -3895.756 L 6267.265 -3895.756 Q 6265.754 -3895.615 6264.491 -3895.474 L 6264.491 -3895.474 L 6264.491 -3895.474 Q 6262.946 -3895.264 6261.47 -3895.124 L 6261.47 -3895.124 Z  M 6291.103 -3916.261 L 6300.513 -3916.752 L 6300.513 -3916.752 Q 6301.287 -3916.892 6301.568 -3917.173 L 6301.568 -3917.173 L 6301.568 -3917.173 Q 6301.847 -3917.454 6301.847 -3918.367 L 6301.847 -3918.367 L 6301.847 -3918.367 Q 6301.847 -3923.563 6297.424 -3923.563 L 6297.424 -3923.563 L 6297.424 -3923.563 Q 6294.755 -3923.563 6293.106 -3921.702 L 6293.106 -3921.702 L 6293.106 -3921.702 Q 6291.455 -3919.842 6291.103 -3916.261 L 6291.103 -3916.261 Z  M 6309.151 -3912.328 L 6291.103 -3912.328 L 6291.103 -3911.696 L 6291.103 -3911.696 Q 6291.314 -3906.991 6293.632 -3904.463 L 6293.632 -3904.463 L 6293.632 -3904.463 Q 6295.95 -3901.935 6299.881 -3901.935 L 6299.881 -3901.935 L 6299.881 -3901.935 Q 6301.498 -3901.935 6303.042 -3902.251 L 6303.042 -3902.251 L 6303.042 -3902.251 Q 6304.587 -3902.567 6305.78 -3902.989 L 6305.78 -3902.989 L 6305.78 -3902.989 Q 6307.114 -3903.409 6308.309 -3904.042 L 6308.309 -3904.042 L 6308.869 -3903.831 L 6309.994 -3900.25 L 6309.994 -3900.25 Q 6307.957 -3898.775 6305.85 -3897.652 L 6305.85 -3897.652 L 6305.85 -3897.652 Q 6304.025 -3896.668 6301.918 -3895.861 L 6301.918 -3895.861 L 6301.918 -3895.861 Q 6299.812 -3895.053 6297.916 -3895.053 L 6297.916 -3895.053 L 6297.916 -3895.053 Q 6294.194 -3895.053 6291.244 -3896.177 L 6291.244 -3896.177 L 6291.244 -3896.177 Q 6288.295 -3897.3 6286.224 -3899.407 L 6286.224 -3899.407 L 6286.224 -3899.407 Q 6284.151 -3901.513 6283.064 -3904.498 L 6283.064 -3904.498 L 6283.064 -3904.498 Q 6281.976 -3907.483 6281.976 -3911.274 L 6281.976 -3911.274 L 6281.976 -3911.274 Q 6281.976 -3915.066 6283.239 -3918.367 L 6283.239 -3918.367 L 6283.239 -3918.367 Q 6284.503 -3921.667 6286.714 -3924.055 L 6286.714 -3924.055 L 6286.714 -3924.055 Q 6288.928 -3926.442 6292.017 -3927.811 L 6292.017 -3927.811 L 6292.017 -3927.811 Q 6295.106 -3929.181 6298.688 -3929.181 L 6298.688 -3929.181 L 6298.688 -3929.181 Q 6310.484 -3929.181 6310.484 -3917.103 L 6310.484 -3917.103 L 6310.484 -3917.103 Q 6310.484 -3916.331 6310.414 -3915.628 L 6310.414 -3915.628 L 6310.414 -3915.628 Q 6310.346 -3914.926 6310.205 -3914.364 L 6310.205 -3914.364 L 6310.205 -3914.364 Q 6310.064 -3913.662 6309.994 -3913.1 L 6309.994 -3913.1 L 6309.151 -3912.328 Z  M 6313.786 -3895.264 L 6314.347 -3899.688 L 6314.347 -3899.688 Q 6315.542 -3899.969 6316.243 -3900.39 L 6316.243 -3900.39 L 6316.243 -3900.39 Q 6316.946 -3900.811 6317.297 -3901.444 L 6317.297 -3901.444 L 6317.297 -3901.444 Q 6317.647 -3902.076 6317.717 -3903.024 L 6317.717 -3903.024 L 6317.717 -3903.024 Q 6317.788 -3903.972 6317.788 -3905.306 L 6317.788 -3905.306 L 6317.788 -3937.818 L 6317.788 -3937.818 Q 6317.788 -3939.644 6317.332 -3940.522 L 6317.332 -3940.522 L 6317.332 -3940.522 Q 6316.876 -3941.4 6315.821 -3941.61 L 6315.821 -3941.61 L 6315.821 -3941.61 Q 6315.261 -3941.751 6314.453 -3941.681 L 6314.453 -3941.681 L 6314.453 -3941.681 Q 6313.646 -3941.61 6313.083 -3941.61 L 6313.083 -3941.61 L 6312.943 -3942.523 L 6313.294 -3945.753 L 6313.294 -3945.753 Q 6315.751 -3946.105 6318.314 -3946.455 L 6318.314 -3946.455 L 6318.314 -3946.455 Q 6320.879 -3946.807 6322.984 -3947.157 L 6322.984 -3947.157 L 6322.984 -3947.157 Q 6325.443 -3947.509 6327.76 -3948 L 6327.76 -3948 L 6328.251 -3946.666 L 6328.251 -3946.666 Q 6327.76 -3946.105 6327.373 -3942.559 L 6327.373 -3942.559 L 6327.373 -3942.559 Q 6326.987 -3939.012 6326.706 -3933.218 L 6326.706 -3933.218 L 6326.706 -3933.218 Q 6326.425 -3927.426 6326.25 -3919.772 L 6326.25 -3919.772 L 6326.25 -3919.772 Q 6326.075 -3912.117 6326.075 -3903.339 L 6326.075 -3903.339 L 6326.075 -3903.339 Q 6326.075 -3901.584 6326.531 -3900.882 L 6326.531 -3900.882 L 6326.531 -3900.882 Q 6326.987 -3900.18 6328.11 -3900.18 L 6328.11 -3900.18 L 6328.11 -3900.18 Q 6328.321 -3900.18 6328.743 -3900.18 L 6328.743 -3900.18 L 6328.743 -3900.18 Q 6329.164 -3900.18 6329.516 -3900.25 L 6329.516 -3900.25 L 6329.516 -3900.25 Q 6329.936 -3900.25 6330.498 -3900.32 L 6330.498 -3900.32 L 6330.639 -3899.898 L 6329.936 -3895.685 L 6329.936 -3895.685 Q 6328.391 -3895.685 6326.917 -3895.756 L 6326.917 -3895.756 L 6326.917 -3895.756 Q 6325.653 -3895.826 6324.284 -3895.861 L 6324.284 -3895.861 L 6324.284 -3895.861 Q 6322.914 -3895.896 6321.861 -3895.896 L 6321.861 -3895.896 L 6321.861 -3895.896 Q 6320.527 -3895.896 6319.123 -3895.791 L 6319.123 -3895.791 L 6319.123 -3895.791 Q 6317.717 -3895.685 6316.524 -3895.545 L 6316.524 -3895.545 L 6316.524 -3895.545 Q 6315.12 -3895.404 6313.786 -3895.264 L 6313.786 -3895.264 Z  M 6343.209 -3895.053 L 6343.209 -3895.053 L 6343.209 -3895.053 Q 6341.031 -3895.053 6339.312 -3895.334 L 6339.312 -3895.334 L 6339.312 -3895.334 Q 6337.591 -3895.615 6336.397 -3895.966 L 6336.397 -3895.966 L 6336.397 -3895.966 Q 6334.992 -3896.387 6333.798 -3896.95 L 6333.798 -3896.95 L 6333.377 -3897.722 L 6333.377 -3897.722 Q 6333.447 -3898.424 6333.588 -3899.583 L 6333.588 -3899.583 L 6333.588 -3899.583 Q 6333.728 -3900.741 6333.869 -3902.041 L 6333.869 -3902.041 L 6333.869 -3902.041 Q 6334.009 -3903.339 6334.114 -3904.639 L 6334.114 -3904.639 L 6334.114 -3904.639 Q 6334.22 -3905.937 6334.29 -3906.921 L 6334.29 -3906.921 L 6338.294 -3907.342 L 6338.294 -3907.342 Q 6338.294 -3900.25 6344.472 -3900.25 L 6344.472 -3900.25 L 6344.472 -3900.25 Q 6346.439 -3900.25 6347.772 -3901.128 L 6347.772 -3901.128 L 6347.772 -3901.128 Q 6349.106 -3902.005 6349.106 -3903.339 L 6349.106 -3903.339 L 6349.106 -3903.339 Q 6349.106 -3904.042 6348.827 -3904.604 L 6348.827 -3904.604 L 6348.827 -3904.604 Q 6348.546 -3905.165 6347.738 -3905.798 L 6347.738 -3905.798 L 6347.738 -3905.798 Q 6346.931 -3906.429 6345.595 -3907.202 L 6345.595 -3907.202 L 6345.595 -3907.202 Q 6344.261 -3907.974 6342.154 -3908.957 L 6342.154 -3908.957 L 6342.154 -3908.957 Q 6337.942 -3910.924 6336.01 -3913.135 L 6336.01 -3913.135 L 6336.01 -3913.135 Q 6334.08 -3915.348 6334.08 -3918.367 L 6334.08 -3918.367 L 6334.08 -3918.367 Q 6334.08 -3920.755 6335.168 -3922.756 L 6335.168 -3922.756 L 6335.168 -3922.756 Q 6336.257 -3924.757 6338.187 -3926.161 L 6338.187 -3926.161 L 6338.187 -3926.161 Q 6340.119 -3927.566 6342.787 -3928.374 L 6342.787 -3928.374 L 6342.787 -3928.374 Q 6345.456 -3929.181 6348.686 -3929.181 L 6348.686 -3929.181 L 6348.686 -3929.181 Q 6350.372 -3929.181 6351.81 -3928.97 L 6351.81 -3928.97 L 6351.81 -3928.97 Q 6353.25 -3928.759 6354.303 -3928.549 L 6354.303 -3928.549 L 6354.303 -3928.549 Q 6355.568 -3928.268 6356.55 -3927.917 L 6356.55 -3927.917 L 6356.972 -3927.144 L 6356.972 -3927.144 Q 6356.761 -3925.811 6356.48 -3924.335 L 6356.48 -3924.335 L 6356.48 -3924.335 Q 6356.269 -3923.072 6356.024 -3921.422 L 6356.024 -3921.422 L 6356.024 -3921.422 Q 6355.779 -3919.772 6355.638 -3918.016 L 6355.638 -3918.016 L 6351.565 -3917.805 L 6351.565 -3917.805 Q 6351.565 -3918.016 6351.635 -3918.296 L 6351.635 -3918.296 L 6351.635 -3918.296 Q 6351.635 -3918.507 6351.669 -3918.683 L 6351.669 -3918.683 L 6351.669 -3918.683 Q 6351.705 -3918.859 6351.705 -3918.999 L 6351.705 -3918.999 L 6351.705 -3918.999 Q 6351.635 -3923.774 6346.79 -3923.774 L 6346.79 -3923.774 L 6346.79 -3923.774 Q 6344.964 -3923.774 6343.769 -3922.931 L 6343.769 -3922.931 L 6343.769 -3922.931 Q 6342.576 -3922.089 6342.576 -3920.755 L 6342.576 -3920.755 L 6342.576 -3920.755 Q 6342.576 -3919.42 6343.665 -3918.296 L 6343.665 -3918.296 L 6343.665 -3918.296 Q 6344.753 -3917.173 6347.28 -3915.979 L 6347.28 -3915.979 L 6347.28 -3915.979 Q 6350.372 -3914.505 6352.372 -3913.311 L 6352.372 -3913.311 L 6352.372 -3913.311 Q 6354.373 -3912.117 6355.568 -3910.924 L 6355.568 -3910.924 L 6355.568 -3910.924 Q 6356.761 -3909.73 6357.217 -3908.431 L 6357.217 -3908.431 L 6357.217 -3908.431 Q 6357.675 -3907.131 6357.675 -3905.587 L 6357.675 -3905.587 L 6357.675 -3905.587 Q 6357.675 -3903.339 6356.55 -3901.444 L 6356.55 -3901.444 L 6356.55 -3901.444 Q 6355.427 -3899.548 6353.495 -3898.108 L 6353.495 -3898.108 L 6353.495 -3898.108 Q 6351.565 -3896.668 6348.897 -3895.861 L 6348.897 -3895.861 L 6348.897 -3895.861 Q 6346.228 -3895.053 6343.209 -3895.053 Z  M 6072.856 -3895.053 L 6072.856 -3895.053 L 6072.856 -3895.053 Q 6068.011 -3895.053 6064.148 -3896.598 L 6064.148 -3896.598 L 6064.148 -3896.598 Q 6060.286 -3898.143 6057.582 -3900.987 L 6057.582 -3900.987 L 6057.582 -3900.987 Q 6054.878 -3903.831 6053.438 -3907.939 L 6053.438 -3907.939 L 6053.438 -3907.939 Q 6052 -3912.047 6052 -3917.244 L 6052 -3917.244 L 6052 -3917.244 Q 6052 -3922.861 6053.72 -3927.39 L 6053.72 -3927.39 L 6053.72 -3927.39 Q 6055.441 -3931.92 6058.635 -3935.15 L 6058.635 -3935.15 L 6058.635 -3935.15 Q 6061.83 -3938.38 6066.394 -3940.1 L 6066.394 -3940.1 L 6066.394 -3940.1 Q 6070.959 -3941.821 6076.578 -3941.821 L 6076.578 -3941.821 L 6076.578 -3941.821 Q 6078.823 -3941.821 6081.177 -3941.54 L 6081.177 -3941.54 L 6081.177 -3941.54 Q 6083.529 -3941.259 6085.496 -3940.908 L 6085.496 -3940.908 L 6085.496 -3940.908 Q 6087.812 -3940.557 6089.989 -3940.066 L 6089.989 -3940.066 L 6090.411 -3939.153 L 6090.411 -3939.153 Q 6089.989 -3937.397 6089.638 -3935.29 L 6089.638 -3935.29 L 6089.638 -3935.29 Q 6089.286 -3933.465 6089.007 -3931.077 L 6089.007 -3931.077 L 6089.007 -3931.077 Q 6088.726 -3928.689 6088.585 -3925.881 L 6088.585 -3925.881 L 6081.633 -3925.389 L 6081.633 -3925.389 Q 6081.633 -3925.951 6081.704 -3926.583 L 6081.704 -3926.583 L 6081.704 -3926.583 Q 6081.704 -3927.144 6081.738 -3927.777 L 6081.738 -3927.777 L 6081.738 -3927.777 Q 6081.774 -3928.409 6081.774 -3929.111 L 6081.774 -3929.111 L 6081.774 -3929.111 Q 6081.774 -3932.2 6079.948 -3933.605 L 6079.948 -3933.605 L 6079.948 -3933.605 Q 6078.122 -3935.009 6074.119 -3935.009 L 6074.119 -3935.009 L 6074.119 -3935.009 Q 6068.642 -3935.009 6065.797 -3931.183 L 6065.797 -3931.183 L 6065.797 -3931.183 Q 6062.953 -3927.355 6062.953 -3919.631 L 6062.953 -3919.631 L 6062.953 -3919.631 Q 6062.953 -3910.994 6066.044 -3906.324 L 6066.044 -3906.324 L 6066.044 -3906.324 Q 6069.134 -3901.654 6074.611 -3901.654 L 6074.611 -3901.654 L 6074.611 -3901.654 Q 6078.403 -3901.654 6080.509 -3903.937 L 6080.509 -3903.937 L 6080.509 -3903.937 Q 6082.616 -3906.218 6083.459 -3911.345 L 6083.459 -3911.345 L 6090.411 -3911.837 L 6090.411 -3911.837 Q 6090.06 -3909.73 6089.778 -3907.483 L 6089.778 -3907.483 L 6089.778 -3907.483 Q 6089.497 -3905.587 6089.286 -3903.234 L 6089.286 -3903.234 L 6089.286 -3903.234 Q 6089.077 -3900.882 6089.007 -3898.705 L 6089.007 -3898.705 L 6088.304 -3897.863 L 6088.304 -3897.863 Q 6086.197 -3897.089 6083.811 -3896.458 L 6083.811 -3896.458 L 6083.811 -3896.458 Q 6081.704 -3895.896 6078.93 -3895.474 L 6078.93 -3895.474 L 6078.93 -3895.474 Q 6076.156 -3895.053 6072.856 -3895.053 Z  M 6094.553 -3895.685 L 6095.115 -3900.039 L 6095.115 -3900.039 Q 6097.011 -3900.25 6097.714 -3901.057 L 6097.714 -3901.057 L 6097.714 -3901.057 Q 6098.416 -3901.865 6098.416 -3903.831 L 6098.416 -3903.831 L 6098.416 -3937.818 L 6098.416 -3937.818 Q 6098.416 -3939.995 6097.785 -3940.838 L 6097.785 -3940.838 L 6097.785 -3940.838 Q 6097.152 -3941.681 6095.467 -3941.681 L 6095.467 -3941.681 L 6093.852 -3941.681 L 6093.5 -3942.031 L 6093.922 -3945.753 L 6093.922 -3945.753 Q 6096.379 -3946.105 6098.942 -3946.455 L 6098.942 -3946.455 L 6098.942 -3946.455 Q 6101.505 -3946.807 6103.612 -3947.157 L 6103.612 -3947.157 L 6103.612 -3947.157 Q 6106.07 -3947.509 6108.388 -3948 L 6108.388 -3948 L 6108.878 -3946.666 L 6108.878 -3946.666 Q 6108.527 -3946.244 6108.248 -3944.384 L 6108.248 -3944.384 L 6108.248 -3944.384 Q 6107.966 -3942.523 6107.685 -3939.468 L 6107.685 -3939.468 L 6107.685 -3939.468 Q 6107.404 -3936.414 6107.229 -3932.27 L 6107.229 -3932.27 L 6107.229 -3932.27 Q 6107.053 -3928.128 6106.912 -3923.072 L 6106.912 -3923.072 L 6106.912 -3923.072 Q 6107.685 -3923.774 6108.949 -3924.827 L 6108.949 -3924.827 L 6108.949 -3924.827 Q 6110.214 -3925.881 6111.582 -3926.829 L 6111.582 -3926.829 L 6111.582 -3926.829 Q 6112.952 -3927.777 6114.215 -3928.479 L 6114.215 -3928.479 L 6114.215 -3928.479 Q 6115.481 -3929.181 6116.252 -3929.181 L 6116.252 -3929.181 L 6116.252 -3929.181 Q 6121.378 -3929.181 6124.118 -3926.829 L 6124.118 -3926.829 L 6124.118 -3926.829 Q 6126.856 -3924.476 6126.856 -3920.052 L 6126.856 -3920.052 L 6126.856 -3920.052 Q 6126.856 -3918.999 6126.645 -3916.787 L 6126.645 -3916.787 L 6126.645 -3916.787 Q 6126.434 -3914.575 6126.189 -3912.047 L 6126.189 -3912.047 L 6126.189 -3912.047 Q 6125.944 -3909.519 6125.733 -3907.167 L 6125.733 -3907.167 L 6125.733 -3907.167 Q 6125.522 -3904.814 6125.522 -3903.55 L 6125.522 -3903.55 L 6125.522 -3903.55 Q 6125.522 -3901.724 6126.014 -3900.987 L 6126.014 -3900.987 L 6126.014 -3900.987 Q 6126.504 -3900.25 6127.699 -3900.25 L 6127.699 -3900.25 L 6129.033 -3900.25 L 6129.033 -3900.25 Q 6129.384 -3900.25 6129.804 -3900.32 L 6129.804 -3900.32 L 6129.945 -3900.039 L 6129.314 -3895.685 L 6129.314 -3895.685 Q 6127.838 -3895.685 6126.504 -3895.756 L 6126.504 -3895.756 L 6126.504 -3895.756 Q 6125.311 -3895.826 6123.977 -3895.861 L 6123.977 -3895.861 L 6123.977 -3895.861 Q 6122.642 -3895.896 6121.659 -3895.896 L 6121.659 -3895.896 L 6121.659 -3895.896 Q 6120.607 -3895.896 6119.237 -3895.826 L 6119.237 -3895.826 L 6119.237 -3895.826 Q 6117.867 -3895.756 6116.674 -3895.615 L 6116.674 -3895.615 L 6116.674 -3895.615 Q 6115.27 -3895.474 6113.794 -3895.334 L 6113.794 -3895.334 L 6114.215 -3899.758 L 6114.215 -3899.758 Q 6115.901 -3900.18 6116.638 -3901.057 L 6116.638 -3901.057 L 6116.638 -3901.057 Q 6117.375 -3901.935 6117.445 -3903.691 L 6117.445 -3903.691 L 6117.726 -3915.698 L 6117.726 -3915.698 Q 6117.726 -3921.807 6113.233 -3921.807 L 6113.233 -3921.807 L 6113.233 -3921.807 Q 6112.249 -3921.807 6111.301 -3921.457 L 6111.301 -3921.457 L 6111.301 -3921.457 Q 6110.353 -3921.105 6109.475 -3920.649 L 6109.475 -3920.649 L 6109.475 -3920.649 Q 6108.597 -3920.193 6107.93 -3919.701 L 6107.93 -3919.701 L 6107.93 -3919.701 Q 6107.264 -3919.209 6106.842 -3918.929 L 6106.842 -3918.929 L 6106.842 -3918.929 Q 6106.771 -3915.277 6106.737 -3911.38 L 6106.737 -3911.38 L 6106.737 -3911.38 Q 6106.703 -3907.483 6106.703 -3903.409 L 6106.703 -3903.409 L 6106.703 -3903.409 Q 6106.703 -3901.654 6107.159 -3900.952 L 6107.159 -3900.952 L 6107.159 -3900.952 Q 6107.615 -3900.25 6108.808 -3900.25 L 6108.808 -3900.25 L 6108.808 -3900.25 Q 6109.019 -3900.25 6109.336 -3900.25 L 6109.336 -3900.25 L 6109.336 -3900.25 Q 6109.652 -3900.25 6109.933 -3900.32 L 6109.933 -3900.32 L 6109.933 -3900.32 Q 6110.214 -3900.32 6110.564 -3900.39 L 6110.564 -3900.39 L 6110.704 -3899.969 L 6110.003 -3895.685 L 6110.003 -3895.685 Q 6108.597 -3895.685 6107.264 -3895.756 L 6107.264 -3895.756 L 6107.264 -3895.756 Q 6106.07 -3895.826 6104.736 -3895.861 L 6104.736 -3895.861 L 6104.736 -3895.861 Q 6103.401 -3895.896 6102.348 -3895.896 L 6102.348 -3895.896 L 6102.348 -3895.896 Q 6101.015 -3895.896 6099.681 -3895.861 L 6099.681 -3895.861 L 6099.681 -3895.861 Q 6098.345 -3895.826 6097.152 -3895.756 L 6097.152 -3895.756 L 6097.152 -3895.756 Q 6095.818 -3895.685 6094.553 -3895.685 L 6094.553 -3895.685 Z  M 6142.445 -3916.261 L 6151.855 -3916.752 L 6151.855 -3916.752 Q 6152.626 -3916.892 6152.908 -3917.173 L 6152.908 -3917.173 L 6152.908 -3917.173 Q 6153.189 -3917.454 6153.189 -3918.367 L 6153.189 -3918.367 L 6153.189 -3918.367 Q 6153.189 -3923.563 6148.766 -3923.563 L 6148.766 -3923.563 L 6148.766 -3923.563 Q 6146.096 -3923.563 6144.447 -3921.702 L 6144.447 -3921.702 L 6144.447 -3921.702 Q 6142.796 -3919.842 6142.445 -3916.261 L 6142.445 -3916.261 Z  M 6160.492 -3912.328 L 6142.445 -3912.328 L 6142.445 -3911.696 L 6142.445 -3911.696 Q 6142.655 -3906.991 6144.973 -3904.463 L 6144.973 -3904.463 L 6144.973 -3904.463 Q 6147.289 -3901.935 6151.222 -3901.935 L 6151.222 -3901.935 L 6151.222 -3901.935 Q 6152.837 -3901.935 6154.382 -3902.251 L 6154.382 -3902.251 L 6154.382 -3902.251 Q 6155.927 -3902.567 6157.122 -3902.989 L 6157.122 -3902.989 L 6157.122 -3902.989 Q 6158.455 -3903.409 6159.649 -3904.042 L 6159.649 -3904.042 L 6160.211 -3903.831 L 6161.334 -3900.25 L 6161.334 -3900.25 Q 6159.299 -3898.775 6157.192 -3897.652 L 6157.192 -3897.652 L 6157.192 -3897.652 Q 6155.366 -3896.668 6153.259 -3895.861 L 6153.259 -3895.861 L 6153.259 -3895.861 Q 6151.152 -3895.053 6149.256 -3895.053 L 6149.256 -3895.053 L 6149.256 -3895.053 Q 6145.534 -3895.053 6142.585 -3896.177 L 6142.585 -3896.177 L 6142.585 -3896.177 Q 6139.636 -3897.3 6137.564 -3899.407 L 6137.564 -3899.407 L 6137.564 -3899.407 Q 6135.493 -3901.513 6134.404 -3904.498 L 6134.404 -3904.498 L 6134.404 -3904.498 Q 6133.315 -3907.483 6133.315 -3911.274 L 6133.315 -3911.274 L 6133.315 -3911.274 Q 6133.315 -3915.066 6134.581 -3918.367 L 6134.581 -3918.367 L 6134.581 -3918.367 Q 6135.844 -3921.667 6138.056 -3924.055 L 6138.056 -3924.055 L 6138.056 -3924.055 Q 6140.267 -3926.442 6143.358 -3927.811 L 6143.358 -3927.811 L 6143.358 -3927.811 Q 6146.448 -3929.181 6150.029 -3929.181 L 6150.029 -3929.181 L 6150.029 -3929.181 Q 6161.826 -3929.181 6161.826 -3917.103 L 6161.826 -3917.103 L 6161.826 -3917.103 Q 6161.826 -3916.331 6161.756 -3915.628 L 6161.756 -3915.628 L 6161.756 -3915.628 Q 6161.685 -3914.926 6161.545 -3914.364 L 6161.545 -3914.364 L 6161.545 -3914.364 Q 6161.404 -3913.662 6161.334 -3913.1 L 6161.334 -3913.1 L 6160.492 -3912.328 Z  M 6166.671 -3895.615 L 6165.477 -3897.933 L 6183.173 -3923.774 L 6176.854 -3923.353 L 6176.854 -3923.353 Q 6175.028 -3923.212 6173.833 -3922.861 L 6173.833 -3922.861 L 6173.833 -3922.861 Q 6172.64 -3922.51 6171.903 -3921.807 L 6171.903 -3921.807 L 6171.903 -3921.807 Q 6171.166 -3921.105 6170.814 -3919.982 L 6170.814 -3919.982 L 6170.814 -3919.982 Q 6170.463 -3918.859 6170.322 -3917.173 L 6170.322 -3917.173 L 6166.741 -3916.822 L 6166.741 -3916.822 Q 6166.882 -3918.859 6167.092 -3920.895 L 6167.092 -3920.895 L 6167.092 -3920.895 Q 6167.233 -3922.65 6167.338 -3924.687 L 6167.338 -3924.687 L 6167.338 -3924.687 Q 6167.444 -3926.724 6167.514 -3928.479 L 6167.514 -3928.479 L 6168.006 -3928.97 L 6177.134 -3928.409 L 6193.426 -3928.198 L 6194.339 -3926.091 L 6194.339 -3926.091 Q 6191.178 -3921.878 6188.3 -3917.911 L 6188.3 -3917.911 L 6188.3 -3917.911 Q 6185.421 -3913.943 6183.033 -3910.502 L 6183.033 -3910.502 L 6183.033 -3910.502 Q 6180.645 -3907.061 6178.855 -3904.428 L 6178.855 -3904.428 L 6178.855 -3904.428 Q 6177.063 -3901.794 6176.081 -3900.32 L 6176.081 -3900.32 L 6183.525 -3900.952 L 6183.525 -3900.952 Q 6186.544 -3901.303 6188.054 -3903.164 L 6188.054 -3903.164 L 6188.054 -3903.164 Q 6189.563 -3905.024 6190.196 -3909.238 L 6190.196 -3909.238 L 6193.918 -3909.589 L 6193.918 -3909.589 Q 6193.566 -3907.413 6193.285 -3905.095 L 6193.285 -3905.095 L 6193.285 -3905.095 Q 6193.074 -3903.129 6192.899 -3900.882 L 6192.899 -3900.882 L 6192.899 -3900.882 Q 6192.724 -3898.635 6192.724 -3896.668 L 6192.724 -3896.668 L 6191.6 -3895.545 L 6170.604 -3896.037 L 6166.671 -3895.615 Z " fill-rule="evenodd" fill="rgb(255,255,255)"/><g id="fire"><g id="Group"><path d=" M 5997.745 -3894 C 5994.146 -3901.489 5996.062 -3905.78 5998.828 -3909.823 C 6001.858 -3914.25 6002.638 -3918.633 6002.638 -3918.633 C 6002.638 -3918.633 6005.019 -3915.537 6004.067 -3910.696 C 6008.274 -3915.378 6009.068 -3922.839 6008.432 -3925.697 C 6017.941 -3919.052 6022.005 -3904.663 6016.528 -3894 C 6045.657 -3910.481 6023.774 -3935.142 6019.964 -3937.92 C 6021.234 -3935.142 6021.475 -3930.439 6018.909 -3928.157 C 6014.567 -3944.625 6003.829 -3948 6003.829 -3948 C 6005.099 -3939.507 5999.225 -3930.221 5993.562 -3923.282 C 5993.363 -3926.668 5993.151 -3929.005 5991.371 -3932.246 C 5990.971 -3926.094 5986.269 -3921.079 5984.996 -3914.916 C 5983.272 -3906.568 5986.288 -3900.457 5997.745 -3894 Z " fill="rgb(234,64,64)"/></g></g></g></svg>